# xmcd
#
# Track frame offsets: 
#        150
#        11123
#        27056
#        43325
#        63595
#        74395
#        90632
#        103658
#        128188
#        141825
#        150833
#        175139
#
# Disc length: 2676 seconds
#
# Revision: 0
# Processed by: cddbd v1.5.1PL0 Copyright (c) Steve Scherf et al.
# Submitted via: ExactAudioCopy v0.95a4
#
DISCID=9f0a720c
DTITLE=Cosmo Jones Beat Machine - Negrospiritualized
DYEAR=2003
DGENRE=Blues
TTITLE0=Aboriginality
TTITLE1=(Doin' the) Jonestown Stomp
TTITLE2=Stripped-Down Spiritual
TTITLE3=Dinin' with the Mau-Mau
TTITLE4=Jesus Don't Mind My Drinking
TTITLE5=Mississippi Sound System
TTITLE6=EuroLeroy
TTITLE7=Voodoo Audio Blues
TTITLE8=Parallel City
TTITLE9=Preachin' the Gospel
TTITLE10=Hellbait
TTITLE11=Smilin' Snakes
EXTD=
EXTT0=
EXTT1=
EXTT2=
EXTT3=
EXTT4=
EXTT5=
EXTT6=
EXTT7=
EXTT8=
EXTT9=
EXTT10=
EXTT11=
PLAYORDER=
